<svg xmlns="http://www.w3.org/2000/svg" width="250.375" height="254.877" viewBox="0 0 250.375 254.877"><g transform="translate(-0.532 -0.254)"><path d="M17.047,65.076A4.044,4.044,0,0,1,13,61.03V13.292a4.047,4.047,0,0,1,8.093,0V61.03a4.044,4.044,0,0,1-4.047,4.047Z" transform="translate(88.436 63.784)" fill="#8b8891"/><path d="M62.606,17.339H14.047a4.047,4.047,0,0,1,0-8.093H62.606a4.047,4.047,0,1,1,0,8.093Z" transform="translate(67.156 63.784)" fill="#8b8891"/><path d="M23.686,28.746H96.525a16.186,16.186,0,0,1,16.186,16.186v8.093H7.5V44.933A16.186,16.186,0,0,1,23.686,28.746Z" transform="translate(49.423 202.104)" fill="#afaeb3"/><path d="M50.966,92.585H26.686L10.5,19.746H67.153Z" transform="translate(70.703 138.263)" fill="#8b8891"/><path d="M130.024,153.962a4.044,4.044,0,0,1-4.047-4.047V20.487a12.143,12.143,0,0,0-12.14-12.14h-.043l-61.987.237a28.156,28.156,0,0,0-4.679.4L18.869,13.468a4.049,4.049,0,1,1-1.265-8L45.8,1A36.307,36.307,0,0,1,51.771.491L113.763.254h.075a20.238,20.238,0,0,1,20.233,20.233V149.915a4.044,4.044,0,0,1-4.047,4.047Z" transform="translate(96.856 0)" fill="#8b8891"/><path d="M12.293,5.162a16.186,16.186,0,0,1,22.891,0h0a16.186,16.186,0,0,1,0,22.891Z" transform="translate(83.42 1.188)" fill="#fdd402"/><path d="M137.61,116.735H67.631a8.239,8.239,0,0,1-7.922-5.975L31.761,12.939A15.921,15.921,0,0,0,16.453,1.392h0A15.921,15.921,0,0,0,1.113,21.574L33.349,137.622a16.478,16.478,0,0,0,15.876,12.067H137.61a41.194,41.194,0,0,1,12.114,1.822l80.8,24.862a15.749,15.749,0,0,0,20.38-15.052h0a15.749,15.749,0,0,0-11.117-15.052l-90.066-27.713a41.194,41.194,0,0,0-12.114-1.821Z" transform="translate(0 8.076)" fill="#7078e2"/></g></svg>